<mxfile host="app.diagrams.net" modified="2024-01-20T09:56:24.047Z" agent="Mozilla/5.0 (Windows NT 10.0; Win64; x64) AppleWebKit/537.36 (KHTML, like Gecko) Chrome/120.0.0.0 Safari/537.36" etag="v23ssqrCYN4Pblhx8gWa" version="22.1.21" type="github">
  <diagram name="第 1 页" id="Wv2GHdDbenU-RjBPxYpL">
    <mxGraphModel dx="1343" dy="707" grid="1" gridSize="10" guides="1" tooltips="1" connect="1" arrows="1" fold="1" page="1" pageScale="1" pageWidth="827" pageHeight="1169" math="0" shadow="0">
      <root>
        <mxCell id="0" />
        <mxCell id="1" parent="0" />
        <mxCell id="yr4O7Iwp1ujw8mo6jGKK-13" value="GameFrame Tick 流程" style="text;html=1;strokeColor=none;fillColor=none;align=center;verticalAlign=middle;whiteSpace=wrap;rounded=1;labelBackgroundColor=none;fontStyle=1;fontSize=16;" vertex="1" parent="1">
          <mxGeometry x="316" y="7" width="195" height="30" as="geometry" />
        </mxCell>
        <mxCell id="yr4O7Iwp1ujw8mo6jGKK-54" value="" style="edgeStyle=orthogonalEdgeStyle;rounded=0;orthogonalLoop=1;jettySize=auto;html=1;entryX=0.5;entryY=0;entryDx=0;entryDy=0;labelBackgroundColor=none;fontColor=default;" edge="1" parent="1" source="yr4O7Iwp1ujw8mo6jGKK-15" target="yr4O7Iwp1ujw8mo6jGKK-37">
          <mxGeometry relative="1" as="geometry" />
        </mxCell>
        <mxCell id="yr4O7Iwp1ujw8mo6jGKK-15" value="MonoBehavior.Update" style="rounded=1;whiteSpace=wrap;html=1;labelBackgroundColor=none;fillColor=none;fontStyle=1" vertex="1" parent="1">
          <mxGeometry x="221" y="130" width="385" height="30" as="geometry" />
        </mxCell>
        <mxCell id="yr4O7Iwp1ujw8mo6jGKK-56" value="" style="edgeStyle=orthogonalEdgeStyle;rounded=0;orthogonalLoop=1;jettySize=auto;html=1;labelBackgroundColor=none;fontColor=default;" edge="1" parent="1" source="yr4O7Iwp1ujw8mo6jGKK-37" target="yr4O7Iwp1ujw8mo6jGKK-38">
          <mxGeometry relative="1" as="geometry" />
        </mxCell>
        <mxCell id="yr4O7Iwp1ujw8mo6jGKK-37" value="BaseComponent.Update" style="rounded=1;whiteSpace=wrap;html=1;labelBackgroundColor=none;fillColor=none;fontStyle=1" vertex="1" parent="1">
          <mxGeometry x="221" y="190" width="385" height="30" as="geometry" />
        </mxCell>
        <mxCell id="yr4O7Iwp1ujw8mo6jGKK-57" value="" style="edgeStyle=orthogonalEdgeStyle;rounded=0;orthogonalLoop=1;jettySize=auto;html=1;entryX=0.5;entryY=0;entryDx=0;entryDy=0;labelBackgroundColor=none;fontColor=default;" edge="1" parent="1" source="yr4O7Iwp1ujw8mo6jGKK-38" target="yr4O7Iwp1ujw8mo6jGKK-40">
          <mxGeometry relative="1" as="geometry" />
        </mxCell>
        <mxCell id="yr4O7Iwp1ujw8mo6jGKK-38" value="GameFrameworkEntry.Update" style="rounded=1;whiteSpace=wrap;html=1;labelBackgroundColor=none;fillColor=none;fontStyle=1" vertex="1" parent="1">
          <mxGeometry x="221" y="250" width="385" height="30" as="geometry" />
        </mxCell>
        <mxCell id="yr4O7Iwp1ujw8mo6jGKK-40" value="" style="rounded=1;whiteSpace=wrap;html=1;labelBackgroundColor=none;fillColor=none;fontStyle=1" vertex="1" parent="1">
          <mxGeometry x="74" y="350" width="680" height="160" as="geometry" />
        </mxCell>
        <mxCell id="yr4O7Iwp1ujw8mo6jGKK-41" value="ModuleA" style="rounded=0;whiteSpace=wrap;html=1;labelBackgroundColor=none;" vertex="1" parent="1">
          <mxGeometry x="130" y="370" width="120" height="60" as="geometry" />
        </mxCell>
        <mxCell id="yr4O7Iwp1ujw8mo6jGKK-42" value="ModuleB" style="rounded=0;whiteSpace=wrap;html=1;labelBackgroundColor=none;" vertex="1" parent="1">
          <mxGeometry x="270" y="370" width="120" height="60" as="geometry" />
        </mxCell>
        <mxCell id="yr4O7Iwp1ujw8mo6jGKK-43" value="Module ..." style="rounded=0;whiteSpace=wrap;html=1;labelBackgroundColor=none;" vertex="1" parent="1">
          <mxGeometry x="410" y="370" width="120" height="60" as="geometry" />
        </mxCell>
        <mxCell id="yr4O7Iwp1ujw8mo6jGKK-44" value="Module XXX" style="rounded=0;whiteSpace=wrap;html=1;labelBackgroundColor=none;" vertex="1" parent="1">
          <mxGeometry x="560" y="370" width="120" height="60" as="geometry" />
        </mxCell>
        <mxCell id="yr4O7Iwp1ujw8mo6jGKK-51" value="" style="group;labelBackgroundColor=none;" vertex="1" connectable="0" parent="1">
          <mxGeometry x="120" y="460" width="620" height="30" as="geometry" />
        </mxCell>
        <mxCell id="yr4O7Iwp1ujw8mo6jGKK-46" value="" style="endArrow=classic;html=1;rounded=0;labelBackgroundColor=none;fontColor=default;" edge="1" parent="yr4O7Iwp1ujw8mo6jGKK-51">
          <mxGeometry width="50" height="50" relative="1" as="geometry">
            <mxPoint y="30" as="sourcePoint" />
            <mxPoint x="620" y="30" as="targetPoint" />
          </mxGeometry>
        </mxCell>
        <mxCell id="yr4O7Iwp1ujw8mo6jGKK-48" value="Update" style="text;html=1;strokeColor=none;fillColor=none;align=center;verticalAlign=middle;whiteSpace=wrap;rounded=0;labelBackgroundColor=none;" vertex="1" parent="yr4O7Iwp1ujw8mo6jGKK-51">
          <mxGeometry x="290" width="60" height="30" as="geometry" />
        </mxCell>
        <mxCell id="yr4O7Iwp1ujw8mo6jGKK-49" value="Priority Max" style="text;html=1;strokeColor=none;fillColor=none;align=center;verticalAlign=middle;whiteSpace=wrap;rounded=0;labelBackgroundColor=none;" vertex="1" parent="yr4O7Iwp1ujw8mo6jGKK-51">
          <mxGeometry x="10" width="60" height="30" as="geometry" />
        </mxCell>
        <mxCell id="yr4O7Iwp1ujw8mo6jGKK-50" value="Priority Min" style="text;html=1;strokeColor=none;fillColor=none;align=center;verticalAlign=middle;whiteSpace=wrap;rounded=0;labelBackgroundColor=none;" vertex="1" parent="yr4O7Iwp1ujw8mo6jGKK-51">
          <mxGeometry x="540" width="60" height="30" as="geometry" />
        </mxCell>
        <mxCell id="yr4O7Iwp1ujw8mo6jGKK-55" style="edgeStyle=orthogonalEdgeStyle;rounded=0;orthogonalLoop=1;jettySize=auto;html=1;exitX=1;exitY=0.5;exitDx=0;exitDy=0;entryX=0.5;entryY=0;entryDx=0;entryDy=0;labelBackgroundColor=none;fontColor=default;" edge="1" parent="1" source="yr4O7Iwp1ujw8mo6jGKK-40" target="yr4O7Iwp1ujw8mo6jGKK-15">
          <mxGeometry relative="1" as="geometry">
            <mxPoint x="680" y="120" as="sourcePoint" />
            <mxPoint x="670" y="280" as="targetPoint" />
            <Array as="points">
              <mxPoint x="780" y="80" />
              <mxPoint x="414" y="80" />
            </Array>
          </mxGeometry>
        </mxCell>
      </root>
    </mxGraphModel>
  </diagram>
</mxfile>
